<?xml version="1.0" encoding="UTF-8" standalone="no"?>
<!-- Created with Inkscape (http://www.inkscape.org/) -->

<svg
   xmlns:dc="http://purl.org/dc/elements/1.1/"
   xmlns:cc="http://creativecommons.org/ns#"
   xmlns:rdf="http://www.w3.org/1999/02/22-rdf-syntax-ns#"
   xmlns:svg="http://www.w3.org/2000/svg"
   xmlns="http://www.w3.org/2000/svg"
   xmlns:xlink="http://www.w3.org/1999/xlink"
   xmlns:sodipodi="http://sodipodi.sourceforge.net/DTD/sodipodi-0.dtd"
   xmlns:inkscape="http://www.inkscape.org/namespaces/inkscape"
   width="210mm"
   height="297mm"
   viewBox="0 0 210 297"
   version="1.1"
   id="svg8"
   inkscape:version="0.92.2 (5c3e80d, 2017-08-06)"
   sodipodi:docname="Logo-SVG.svg">
  <defs
     id="defs2" />
  <sodipodi:namedview
     id="base"
     pagecolor="#ffffff"
     bordercolor="#666666"
     borderopacity="1.0"
     inkscape:pageopacity="0.0"
     inkscape:pageshadow="2"
     inkscape:zoom="0.49497475"
     inkscape:cx="349.39908"
     inkscape:cy="639.38845"
     inkscape:document-units="mm"
     inkscape:current-layer="layer1"
     showgrid="false"
     inkscape:window-width="1366"
     inkscape:window-height="715"
     inkscape:window-x="-8"
     inkscape:window-y="22"
     inkscape:window-maximized="1" />
  <metadata
     id="metadata5">
    <rdf:RDF>
      <cc:Work
         rdf:about="">
        <dc:format>image/svg+xml</dc:format>
        <dc:type
           rdf:resource="http://purl.org/dc/dcmitype/StillImage" />
        <dc:title></dc:title>
      </cc:Work>
    </rdf:RDF>
  </metadata>
  <g
     inkscape:label="Layer 1"
     inkscape:groupmode="layer"
     id="layer1">
    <path
       style="opacity:1;fill:#7b96b7;fill-opacity:1;stroke:#ffffff;stroke-width:0.1898278"
       id="path3707-8-1"
       sodipodi:type="arc"
       sodipodi:cx="102.05342"
       sodipodi:cy="147.32132"
       sodipodi:rx="57.490707"
       sodipodi:ry="57.490707"
       sodipodi:start="4.7880316"
       sodipodi:end="4.7817135"
       sodipodi:open="true"
       d="m 106.39802,89.995009 a 57.490707,57.490707 0 0 1 52.9885,61.580361 57.490707,57.490707 0 0 1 -61.496583,53.0857 57.490707,57.490707 0 0 1 -53.18277,-61.41266 57.490707,57.490707 0 0 1 61.328583,-53.279706" />
    <path
       style="opacity:1;fill:#7b96b7;fill-opacity:1;stroke:#ffffff;stroke-width:0.26458332"
       id="path3707"
       sodipodi:type="arc"
       sodipodi:cx="102.05338"
       sodipodi:cy="147.32129"
       sodipodi:rx="80.130951"
       sodipodi:ry="80.130951"
       sodipodi:start="4.7880316"
       sodipodi:end="4.7817135"
       sodipodi:open="true"
       d="M 108.10892,67.419476 A 80.130951,80.130951 0 0 1 181.96466,153.25061 80.130951,80.130951 0 0 1 96.25029,227.24183 80.130951,80.130951 0 0 1 22.123772,141.64444 80.130951,80.130951 0 0 1 107.60397,67.382811" />
    <path
       style="opacity:1;fill:#fff848;fill-opacity:1;stroke:#ffffff;stroke-width:0.16241744"
       id="path3707-8"
       sodipodi:type="arc"
       sodipodi:cx="102.05344"
       sodipodi:cy="147.32133"
       sodipodi:rx="49.189285"
       sodipodi:ry="49.189285"
       sodipodi:start="4.7880316"
       sodipodi:end="4.7817135"
       sodipodi:open="true"
       d="M 105.7707,98.272708 A 49.189285,49.189285 0 0 1 151.10787,150.96112 49.189285,49.189285 0 0 1 98.491143,196.38146 49.189285,49.189285 0 0 1 52.987746,143.83654 49.189285,49.189285 0 0 1 105.46073,98.250201" />
    <text
       xml:space="preserve"
       style="font-style:normal;font-weight:normal;font-size:13.03091049px;line-height:1.25;font-family:sans-serif;letter-spacing:0px;word-spacing:0px;fill:#ffffff;fill-opacity:1;stroke:none;stroke-width:0.32577273"
       id="text4533"
       inkscape:transform-center-x="1.7882189"
       inkscape:transform-center-y="-19.754956"
       transform="rotate(-123.30787,101.46436,147.43228)"><textPath
         xlink:href="#path3707-8-1"
         id="textPath4566">NEW MUSLIM PUBLIC HIGH SCHOOL</textPath></text>
    <flowRoot
       xml:space="preserve"
       id="flowRoot4535"
       style="fill:black;fill-opacity:1;stroke:none;font-family:sans-serif;font-style:normal;font-weight:normal;font-size:40px;line-height:1.25;letter-spacing:0px;word-spacing:0px"><flowRegion
         id="flowRegion4537"><rect
           id="rect4539"
           width="91.428574"
           height="60"
           x="105.71429"
           y="1011.0911" /></flowRegion><flowPara
         id="flowPara4541"></flowPara></flowRoot>    <path
       style="fill:#7b96b7;fill-opacity:1;stroke:#000000;stroke-width:0.26268792px;stroke-linecap:butt;stroke-linejoin:miter;stroke-opacity:1"
       d="m 102.20009,155.03858 -0.42347,27.52554 C 89.570469,176.09984 80.232532,179.3294 70.888207,177.3284 l 20.301661,-31.18268 c 4.599482,2.85113 6.410731,3.29505 11.010222,8.89286 z"
       id="path4583-4-5-2-6"
       inkscape:connector-curvature="0"
       sodipodi:nodetypes="ccccc" />
    <rect
       style="opacity:1;fill:#6699ff;fill-opacity:1;stroke:#7b96b7;stroke-width:0.33864799;stroke-opacity:1"
       id="rect4756"
       width="8.8942385"
       height="23.261856"
       x="97.543983"
       y="131.32672" />
    <path
       style="fill:none;stroke:#000000;stroke-width:0.18997237px;stroke-linecap:butt;stroke-linejoin:miter;stroke-opacity:1"
       d="m 102.20009,155.03858 -0.3838,24.94715 c -8.053044,-6.73964 -15.216746,-8.14329 -22.260533,-8.82747 l 12.665471,-24.17952 c 3.326284,2.06189 6.652576,4.01157 9.978862,8.05984 z"
       id="path4583-1"
       inkscape:connector-curvature="0"
       sodipodi:nodetypes="ccccc" />
    <path
       style="opacity:1;fill:#6699ff;fill-opacity:1;stroke:#7b96b7;stroke-width:0.68417221;stroke-opacity:1"
       d="M 97.943886,142.91874 V 131.6299 h 4.105024 4.10504 v 11.28884 11.28885 h -4.10504 -4.105024 z"
       id="path4758"
       inkscape:connector-curvature="0" />
    <path
       style="fill:none;stroke:#000000;stroke-width:0.21621354px;stroke-linecap:butt;stroke-linejoin:miter;stroke-opacity:1"
       d="m 102.20009,155.03858 -0.3838,24.94715 c -9.165422,-7.67059 -17.371668,-5.82213 -25.388433,-6.60081 l 15.793371,-26.40618 c 3.78575,2.3467 6.193108,3.45239 9.978862,8.05984 z"
       id="path4583-4-9"
       inkscape:connector-curvature="0"
       sodipodi:nodetypes="ccccc" />
    <path
       style="opacity:1;fill:#7b96b7;fill-opacity:1;stroke:#7b96b7;stroke-width:0.68417221;stroke-opacity:1"
       d="m 98.628058,142.91874 v -10.60466 h 3.420852 3.42087 v 10.60466 10.60468 h -3.42087 -3.420852 z"
       id="path4760"
       inkscape:connector-curvature="0" />
    <path
       style="fill:none;stroke:#000000;stroke-width:0.2380812px;stroke-linecap:butt;stroke-linejoin:miter;stroke-opacity:1"
       d="m 102.20009,155.03858 -0.3838,24.94715 c -10.092403,-8.4464 -19.167444,-3.88786 -27.995009,-4.74528 l 18.399947,-28.26171 c 4.168634,2.58405 5.810217,2.98639 9.978862,8.05984 z"
       id="path4583-4-5-2"
       inkscape:connector-curvature="0"
       sodipodi:nodetypes="ccccc" />
    <path
       style="fill:none;stroke:#7b96b7;stroke-width:0.33864799px;stroke-linecap:butt;stroke-linejoin:miter;stroke-opacity:1"
       d="m 101.5635,120.89311 c 3.53515,2.3045 5.99164,7.53014 0.36008,10.15009"
       id="path4766"
       inkscape:connector-curvature="0"
       sodipodi:nodetypes="cc" />
    <path
       style="opacity:1;fill:#ffffff;fill-opacity:1;stroke:#ffffff;stroke-width:0.38380218"
       d="m 98.912112,177.46129 c -4.717858,-3.25516 -9.649145,-5.17557 -15.543987,-6.05332 -2.288577,-0.34077 -3.0388,-0.59482 -2.946252,-0.99768 0.17208,-0.74904 11.581922,-22.56388 11.906559,-22.76452 0.455753,-0.28167 5.489691,3.29993 7.589923,5.40017 l 2.014365,2.01436 -0.2191,12.01039 c -0.12044,6.6057 -0.23883,12.03322 -0.26295,12.06113 -0.0241,0.0279 -1.16646,-0.72383 -2.538558,-1.67053 z"
       id="path4681"
       inkscape:connector-curvature="0" />
    <path
       style="opacity:1;fill:#ffffff;fill-opacity:1;stroke:#ffffff;stroke-width:2.02030516"
       d=""
       id="path4683"
       inkscape:connector-curvature="0"
       transform="scale(0.26458333)" />
    <path
       style="opacity:1;fill:#ffffff;fill-opacity:1;stroke:#ffffff;stroke-width:0.38380218"
       d="m 82.847002,173.47783 c -2.819712,-0.17012 -5.277467,-0.36068 -5.461675,-0.42346 -0.184209,-0.0627 0.980846,-2.32118 2.58901,-5.01866 1.608162,-2.6975 2.997139,-4.83132 3.086614,-4.74184 0.08948,0.0895 -0.71154,1.90476 -1.780034,4.03399 -1.068491,2.12921 -1.942715,3.936 -1.942715,4.01507 0,0.0791 1.1658,0.25645 2.590665,0.39418 2.535326,0.24506 8.00781,1.50291 8.446259,1.94135 0.249217,0.24922 -0.326865,0.23386 -7.528124,-0.20063 z"
       id="path4685"
       inkscape:connector-curvature="0" />
    <path
       style="opacity:1;fill:#ffffff;fill-opacity:1;stroke:#ffffff;stroke-width:0.38380218"
       d="m 74.903572,174.05928 c 2.208145,-3.40166 2.644124,-3.997 2.807466,-3.83365 0.09873,0.0987 -0.210551,0.81065 -0.687301,1.58204 -1.16854,1.89074 -0.787702,2.07259 4.425378,2.11316 2.322002,0.0181 4.567246,0.18129 4.989426,0.36271 0.582492,0.2503 0.342494,0.33635 -0.995196,0.35682 -0.969544,0.0148 -3.901065,0.14196 -6.514497,0.28248 l -4.751693,0.25548 z"
       id="path4687"
       inkscape:connector-curvature="0" />
    <path
       style="opacity:1;fill:#ffffff;fill-opacity:1;stroke:#ffffff;stroke-width:0.04797527"
       d="m 77.865395,170.63732 c 0.08657,-0.33877 0.08693,-0.43493 0.0019,-0.52882 -0.094,-0.10397 -0.265098,-0.12275 -0.409963,-0.0452 -0.05104,0.0273 -0.0928,0.0371 -0.0928,0.0217 0,-0.0507 10.332793,-15.9011 10.35282,-15.88107 0.01589,0.0159 -8.752958,14.71436 -9.63215,16.14551 -0.137781,0.22429 -0.236718,0.35383 -0.219859,0.28787 z"
       id="path4689"
       inkscape:connector-curvature="0" />
    <path
       style="opacity:1;fill:#ffffff;fill-opacity:1;stroke:#ffffff;stroke-width:0.04797527"
       d="m 82.929714,164.36875 c 0,-0.028 0.06399,-0.20616 0.142209,-0.39584 0.177736,-0.43101 0.217638,-0.63725 0.148346,-0.76672 -0.127238,-0.23774 -0.398973,-0.0739 -0.730545,0.44054 -0.08143,0.12634 -0.158833,0.21894 -0.172005,0.20576 -0.01317,-0.0132 1.623015,-2.77751 3.635965,-6.14299 2.012954,-3.36547 3.669017,-6.10994 3.680141,-6.09881 0.02025,0.0202 -6.588285,12.67751 -6.663972,12.76344 -0.02495,0.0282 -0.04014,0.0262 -0.04014,-0.005 z"
       id="path4691"
       inkscape:connector-curvature="0" />
    <path
       style="opacity:1;fill:#ffffff;fill-opacity:1;stroke:#ffffff;stroke-width:0.04797527"
       d="m 80.173335,171.10899 c -0.209884,-0.0239 -0.390085,-0.0519 -0.400446,-0.0623 -0.01039,-0.01 0.144684,-0.32799 0.344547,-0.70584 0.363058,-0.68636 0.493496,-0.84615 0.221651,-0.27152 -0.07914,0.16729 -0.143825,0.34734 -0.143746,0.40012 3.8e-4,0.19975 0.186604,0.40944 0.49228,0.55406 l 0.299095,0.14149 -0.215888,-0.006 c -0.118739,-0.004 -0.387611,-0.0259 -0.597493,-0.0498 z"
       id="path4693"
       inkscape:connector-curvature="0" />
    <path
       style="opacity:1;fill:#ffffff;fill-opacity:1;stroke:#ffffff;stroke-width:0.04797527"
       d="m 77.179336,173.32321 c -0.233555,-0.0203 -0.41657,-0.0599 -0.438074,-0.0947 -0.03457,-0.0559 1.140828,-2.08973 1.183226,-2.04734 0.0098,0.01 -0.147198,0.35553 -0.348884,0.76826 -0.557748,1.14145 -0.541664,1.28743 0.150533,1.36633 0.334459,0.0381 0.349187,0.0435 0.118202,0.0429 -0.145125,-3.9e-4 -0.444376,-0.0162 -0.665001,-0.0355 z"
       id="path4695"
       inkscape:connector-curvature="0" />
    <path
       style="opacity:1;fill:#ffffff;fill-opacity:1;stroke:#ffffff;stroke-width:0.04797527"
       d="m 95.506659,175.86324 c -1.532444,-0.7195 -3.801216,-1.38361 -6.100283,-1.78564 -0.06596,-0.0115 0.117535,-0.0242 0.40779,-0.0281 0.314091,-0.004 0.576282,-0.0317 0.647667,-0.0676 0.134959,-0.0679 0.186182,-0.28526 0.09354,-0.39688 -0.03153,-0.038 -0.03779,-0.0691 -0.01397,-0.0691 0.06247,0 1.29196,0.47732 1.911385,0.74207 1.049036,0.44834 3.526184,1.69855 3.526184,1.77965 0,0.04 -0.07405,0.0128 -0.47233,-0.17431 z"
       id="path4697"
       inkscape:connector-curvature="0" />
    <path
       style="opacity:1;fill:#ffffff;fill-opacity:1;stroke:#ffffff;stroke-width:0.04797527"
       d="m 92.332868,175.12023 c -1.288729,-0.27753 -2.688624,-0.43113 -4.420882,-0.48508 -0.93261,-0.029 -1.005812,-0.0377 -0.98521,-0.11648 0.04286,-0.16392 -0.193157,-0.37198 -0.54253,-0.47826 -0.364938,-0.11097 1.086576,0.0187 2.469953,0.22069 1.050273,0.15336 2.265032,0.40186 3.14284,0.64291 1.44786,0.39759 1.583467,0.48491 0.335829,0.21623 z"
       id="path4699"
       inkscape:connector-curvature="0" />
    <path
       style="fill:none;stroke:#7b96b7;stroke-width:0.33864799px;stroke-linecap:butt;stroke-linejoin:miter;stroke-opacity:1"
       d="m 101.5635,120.89311 c 1.00068,5.02911 -5.379888,6.15462 0.36008,10.15009"
       id="path4766-3"
       inkscape:connector-curvature="0"
       sodipodi:nodetypes="cc" />
    <path
       style="fill:#7b96b7;fill-opacity:1;stroke:#000000;stroke-width:0.26268792px;stroke-linecap:butt;stroke-linejoin:miter;stroke-opacity:1"
       d="m 102.20009,155.03858 0.42347,27.52554 c 12.20615,-6.46428 21.54409,-3.23472 30.88841,-5.23572 L 113.2103,146.14572 c -4.59946,2.85113 -6.41073,3.29505 -11.01021,8.89286 z"
       id="path4583-4-5-2-6-4"
       inkscape:connector-curvature="0"
       sodipodi:nodetypes="ccccc" />
    <path
       style="opacity:1;fill:#7b96b7;fill-opacity:1;stroke:#7b96b7;stroke-width:0.08552153;stroke-opacity:1"
       d="m 101.41933,130.4089 c -1.14485,-0.90318 -1.696727,-1.7223 -1.696727,-2.51834 0,-0.53848 0.190901,-1.05171 0.729427,-1.96101 1.02839,-1.73644 1.3245,-2.53885 1.40162,-3.79807 l 0.0498,-0.81245 0.90531,0.89798 c 1.47249,1.46054 2.12381,2.71967 2.19803,4.24932 0.0819,1.68698 -0.68046,2.9453 -2.41917,3.99315 -0.28222,0.17008 -0.55778,0.30934 -0.61236,0.30946 -0.0545,1e-4 -0.30472,-0.1619 -0.55588,-0.36004 z"
       id="path4783"
       inkscape:connector-curvature="0" />
    <path
       style="fill:none;stroke:#000000;stroke-width:0.18997237px;stroke-linecap:butt;stroke-linejoin:miter;stroke-opacity:1"
       d="m 102.20009,155.03858 0.38381,24.94715 c 8.05303,-6.73964 15.21674,-8.14329 22.26053,-8.82747 l -12.66548,-24.17952 c -3.32628,2.06189 -6.65257,4.01157 -9.97886,8.05984 z"
       id="path4583-1-4"
       inkscape:connector-curvature="0"
       sodipodi:nodetypes="ccccc" />
    <path
       style="opacity:1;fill:#7b96b7;fill-opacity:1;stroke:#7b96b7;stroke-width:0.00755911;stroke-opacity:1"
       d="m 103.80626,123.2637 c -0.28982,-0.37356 -0.51248,-0.62034 -1.02743,-1.13871 -0.21012,-0.21151 -0.37803,-0.38331 -0.37312,-0.38173 0.0142,0.005 0.23932,0.20709 0.3975,0.3577 0.22498,0.21422 0.50334,0.51443 0.71181,0.76767 0.15673,0.1904 0.36508,0.46569 0.35788,0.47289 -0.002,10e-4 -0.032,-0.0331 -0.0666,-0.0778 z"
       id="path4785"
       inkscape:connector-curvature="0" />
    <path
       style="fill:none;stroke:#000000;stroke-width:0.21621354px;stroke-linecap:butt;stroke-linejoin:miter;stroke-opacity:1"
       d="m 102.20009,155.03858 0.38381,24.94715 c 9.16542,-7.67059 17.37166,-5.82213 25.38842,-6.60081 l -15.79337,-26.40618 c -3.78575,2.3467 -6.1931,3.45239 -9.97886,8.05984 z"
       id="path4583-4-9-8"
       inkscape:connector-curvature="0"
       sodipodi:nodetypes="ccccc" />
    <path
       style="opacity:1;fill:#7b96b7;fill-opacity:1;stroke:#7b96b7;stroke-width:0.00755911;stroke-opacity:1"
       d="m 101.82724,121.53446 c -0.005,-0.0623 -0.014,-0.14825 -0.0191,-0.19088 -0.005,-0.0426 -0.008,-0.0775 -0.005,-0.0772 0.003,1e-4 0.0156,0.01 0.0296,0.0212 l 0.0255,0.0211 -0.0103,0.16956 -0.0103,0.16957 z"
       id="path4787"
       inkscape:connector-curvature="0" />
    <path
       style="fill:none;stroke:#000000;stroke-width:0.2380812px;stroke-linecap:butt;stroke-linejoin:miter;stroke-opacity:1"
       d="m 102.20009,155.03858 0.38381,24.94715 c 10.0924,-8.4464 19.16744,-3.88786 27.99499,-4.74528 l -18.39994,-28.26171 c -4.16863,2.58405 -5.81022,2.98639 -9.97886,8.05984 z"
       id="path4583-4-5-2-4"
       inkscape:connector-curvature="0"
       sodipodi:nodetypes="ccccc" />
    <path
       style="opacity:1;fill:#7b96b7;fill-opacity:1;stroke:#7b96b7;stroke-width:0.00755911;stroke-opacity:1"
       d="m 103.89808,123.38663 c -0.0173,-0.023 -0.0283,-0.0418 -0.0243,-0.0418 0.009,0 0.0646,0.0749 0.0595,0.08 -0.002,0.002 -0.0177,-0.0153 -0.0352,-0.0381 z"
       id="path4795"
       inkscape:connector-curvature="0" />
    <path
       style="opacity:1;fill:#ffffff;fill-opacity:1;stroke:#ffffff;stroke-width:0.38380215"
       d="m 105.48807,177.46129 c 4.71786,-3.25516 9.64914,-5.17557 15.54399,-6.05332 2.28858,-0.34077 3.0388,-0.59482 2.94624,-0.99768 -0.17207,-0.74904 -11.58192,-22.56388 -11.90655,-22.76452 -0.45574,-0.28167 -5.48969,3.29993 -7.58994,5.40017 l -2.01434,2.01436 0.21909,12.01039 c 0.12044,6.6057 0.23883,12.03322 0.26295,12.06113 0.024,0.0279 1.16647,-0.72383 2.53856,-1.67053 z"
       id="path4681-8"
       inkscape:connector-curvature="0" />
    <path
       style="opacity:1;fill:#ffffff;fill-opacity:1;stroke:#ffffff;stroke-width:0.38380215"
       d="m 121.55318,173.47783 c 2.81971,-0.17012 5.27747,-0.36068 5.46167,-0.42346 0.18422,-0.0627 -0.98084,-2.32118 -2.58901,-5.01866 -1.60815,-2.6975 -2.99713,-4.83132 -3.08662,-4.74184 -0.0895,0.0895 0.71154,1.90476 1.78004,4.03399 1.06848,2.12921 1.94272,3.936 1.94272,4.01507 0,0.0791 -1.1658,0.25645 -2.59067,0.39418 -2.53532,0.24506 -8.0078,1.50291 -8.44625,1.94135 -0.24923,0.24922 0.32687,0.23386 7.52812,-0.20063 z"
       id="path4685-3"
       inkscape:connector-curvature="0" />
    <path
       style="opacity:1;fill:#ffffff;fill-opacity:1;stroke:#ffffff;stroke-width:0.38380215"
       d="m 129.49662,174.05928 c -2.20815,-3.40166 -2.64414,-3.997 -2.80747,-3.83365 -0.0987,0.0987 0.21056,0.81065 0.6873,1.58204 1.16852,1.89075 0.78769,2.0726 -4.42538,2.11316 -2.32201,0.0181 -4.56725,0.18129 -4.98943,0.36271 -0.58249,0.2503 -0.3425,0.33635 0.99519,0.35682 0.96955,0.0148 3.90108,0.14196 6.5145,0.28248 l 4.75169,0.2555 z"
       id="path4687-2"
       inkscape:connector-curvature="0" />
    <path
       style="opacity:1;fill:#ffffff;fill-opacity:1;stroke:#ffffff;stroke-width:0.04797527"
       d="m 126.53478,170.63732 c -0.0866,-0.33877 -0.0869,-0.43491 -0.002,-0.52882 0.0939,-0.10397 0.26511,-0.12275 0.40995,-0.0452 0.0511,0.0273 0.0928,0.0371 0.0928,0.0217 0,-0.0507 -10.3328,-15.9011 -10.35282,-15.88107 -0.0159,0.0159 8.75296,14.71436 9.63216,16.14551 0.13777,0.2243 0.2367,0.35383 0.21984,0.28787 z"
       id="path4689-2"
       inkscape:connector-curvature="0" />
    <path
       style="opacity:1;fill:#ffffff;fill-opacity:1;stroke:#ffffff;stroke-width:0.04797527"
       d="m 121.47047,164.36875 c 0,-0.028 -0.0639,-0.20616 -0.14221,-0.39584 -0.17773,-0.43101 -0.21764,-0.63725 -0.14835,-0.76672 0.12724,-0.23774 0.39898,-0.0739 0.73055,0.44054 0.0814,0.12634 0.15882,0.21894 0.172,0.20576 0.0132,-0.0132 -1.62302,-2.77751 -3.63596,-6.14299 -2.01296,-3.36547 -3.66902,-6.10994 -3.68014,-6.09881 -0.0202,0.0202 6.58828,12.67751 6.66396,12.76344 0.025,0.0282 0.0402,0.0262 0.0402,-0.005 z"
       id="path4691-0"
       inkscape:connector-curvature="0" />
    <path
       style="opacity:1;fill:#ffffff;fill-opacity:1;stroke:#ffffff;stroke-width:0.04797527"
       d="m 124.22686,171.10899 c 0.20987,-0.0239 0.39007,-0.0519 0.40043,-0.0623 0.01,-0.01 -0.14468,-0.32799 -0.34454,-0.70584 -0.36307,-0.68636 -0.4935,-0.84615 -0.22166,-0.27152 0.0791,0.16729 0.14384,0.34733 0.14375,0.40012 -3.7e-4,0.19975 -0.18661,0.40944 -0.49228,0.55406 l -0.29909,0.14149 0.21588,-0.006 c 0.11878,-0.004 0.3876,-0.0259 0.59751,-0.0498 z"
       id="path4693-7"
       inkscape:connector-curvature="0" />
    <path
       style="opacity:1;fill:#ffffff;fill-opacity:1;stroke:#ffffff;stroke-width:0.04797527"
       d="m 127.22085,173.32321 c 0.23355,-0.0203 0.41657,-0.0599 0.43806,-0.0947 0.0345,-0.0559 -1.14081,-2.08973 -1.18321,-2.04734 -0.01,0.01 0.14719,0.35553 0.34887,0.76826 0.55775,1.14145 0.54168,1.28743 -0.15053,1.36633 -0.33445,0.0381 -0.34918,0.0435 -0.11814,0.0429 0.14514,-3.9e-4 0.44438,-0.0162 0.66501,-0.0355 z"
       id="path4695-3"
       inkscape:connector-curvature="0" />
    <path
       style="opacity:1;fill:#ffffff;fill-opacity:1;stroke:#ffffff;stroke-width:0.04797527"
       d="m 108.89352,175.86324 c 1.53244,-0.7195 3.80122,-1.38361 6.10028,-1.78564 0.0659,-0.0115 -0.1175,-0.0242 -0.40779,-0.0282 -0.3141,-0.004 -0.57627,-0.0316 -0.64767,-0.0676 -0.13496,-0.0679 -0.18617,-0.28526 -0.0936,-0.39688 0.0315,-0.038 0.0377,-0.0691 0.0139,-0.0691 -0.0624,0 -1.29196,0.47733 -1.91138,0.74207 -1.04903,0.44834 -3.52619,1.69855 -3.52619,1.77965 0,0.04 0.074,0.0128 0.47234,-0.1743 z"
       id="path4697-5"
       inkscape:connector-curvature="0" />
    <path
       style="opacity:1;fill:#ffffff;fill-opacity:1;stroke:#ffffff;stroke-width:0.04797527"
       d="m 112.06732,175.12023 c 1.28872,-0.27753 2.68862,-0.43113 4.42087,-0.48508 0.93261,-0.029 1.00583,-0.0377 0.98522,-0.11648 -0.0429,-0.16392 0.19315,-0.37198 0.54252,-0.47826 0.36495,-0.11097 -1.08657,0.0187 -2.46995,0.22069 -1.05026,0.15336 -2.26504,0.40186 -3.14284,0.64291 -1.44787,0.39759 -1.58346,0.48491 -0.33582,0.21623 z"
       id="path4699-7"
       inkscape:connector-curvature="0" />
    <path
       style="opacity:1;fill:#7b96b7;fill-opacity:1;stroke:#000000;stroke-width:0.18997237;stroke-opacity:1"
       id="path4752"
       sodipodi:type="arc"
       sodipodi:cx="102.35126"
       sodipodi:cy="182.09155"
       sodipodi:rx="3.3582692"
       sodipodi:ry="2.1109126"
       sodipodi:start="4.7880316"
       sodipodi:end="4.7817135"
       sodipodi:open="true"
       d="m 102.60504,179.98668 a 3.3582692,2.1109126 0 0 1 3.09528,2.26107 3.3582692,2.1109126 0 0 1 -3.59227,1.94917 3.3582692,2.1109126 0 0 1 -3.106624,-2.25491 3.3582692,2.1109126 0 0 1 3.582454,-1.9563" />
    <path
       style="opacity:1;fill:#000000;fill-opacity:1;stroke:#000000;stroke-width:0.03392363;stroke-opacity:1"
       d="m 101.97678,179.2649 c 0.005,-0.33119 0.0554,-3.57415 0.11071,-7.20659 0.0553,-3.63242 0.10265,-6.73135 0.10509,-6.88649 0.005,-0.33656 0.2267,13.18251 0.23034,14.07611 l 0.003,0.6191 h -0.2294 -0.2294 z"
       id="path4754"
       inkscape:connector-curvature="0" />
    <path
       style="opacity:1;fill:#7b96b7;fill-opacity:1;stroke:#7b96b7;stroke-width:0.02232143;stroke-opacity:1"
       d=""
       id="path4789"
       inkscape:connector-curvature="0"
       transform="scale(0.26458333)" />
    <path
       style="opacity:1;fill:#7b96b7;fill-opacity:1;stroke:#7b96b7;stroke-width:0.02232143;stroke-opacity:1"
       d=""
       id="path4791"
       inkscape:connector-curvature="0"
       transform="scale(0.26458333)" />
    <path
       style="opacity:1;fill:#7b96b7;fill-opacity:1;stroke:#7b96b7;stroke-width:0.02232143;stroke-opacity:1"
       d=""
       id="path4793"
       inkscape:connector-curvature="0"
       transform="scale(0.26458333)" />
    <path
       style="opacity:1;fill:#7b96b7;fill-opacity:1;stroke:#7b96b7;stroke-width:0.00755911;stroke-opacity:1"
       d="m 104.91018,127.83294 c 0,-0.006 0.002,-0.0201 0.006,-0.0299 0.0128,-0.0327 0.0607,-0.25065 0.08,-0.36118 0.09,-0.51528 0.0788,-1.1345 -0.0313,-1.71839 -0.0327,-0.17349 -0.0373,-0.20993 -0.0174,-0.13366 0.0446,0.1695 0.0937,0.45253 0.11826,0.68032 0.017,0.15724 0.0194,0.64572 0.004,0.79369 -0.0245,0.2319 -0.0699,0.47851 -0.12274,0.6658 -0.0303,0.10743 -0.0374,0.12684 -0.0374,0.1031 z"
       id="path4797"
       inkscape:connector-curvature="0" />
    <text
       xml:space="preserve"
       style="font-style:normal;font-weight:normal;font-size:15.33800125px;line-height:1.25;font-family:sans-serif;letter-spacing:0px;word-spacing:0px;fill:#000000;fill-opacity:1;stroke:#7b96b7;stroke-width:0.38345003;stroke-opacity:1"
       x="109.69968"
       y="127.01864"
       id="text4801"><tspan
         sodipodi:role="line"
         id="tspan4799"
         x="109.69968"
         y="127.01864"
         style="font-style:normal;font-variant:normal;font-weight:normal;font-stretch:normal;font-size:19.75555611px;font-family:'Adobe Arabic';-inkscape-font-specification:'Adobe Arabic';stroke:#7b96b7;stroke-width:0.38345003;stroke-opacity:1">العلم</tspan></text>
    <text
       xml:space="preserve"
       style="font-style:normal;font-weight:normal;font-size:15.21968651px;line-height:1.25;font-family:sans-serif;letter-spacing:0px;word-spacing:0px;fill:#000000;fill-opacity:1;stroke:#7b96b7;stroke-width:0.38049215;stroke-opacity:1"
       x="76.329506"
       y="127.34937"
       id="text4805"><tspan
         sodipodi:role="line"
         id="tspan4803"
         x="76.329506"
         y="127.34937"
         style="font-style:normal;font-variant:normal;font-weight:normal;font-stretch:normal;font-size:19.75555611px;line-height:5.25;font-family:'Adobe Arabic';-inkscape-font-specification:'Adobe Arabic';stroke:#7b96b7;stroke-width:0.38049215;stroke-opacity:1">نور</tspan></text>
  </g>
</svg>
